<svg id="mermaid-1606537385608" width="100%" xmlns="http://www.w3.org/2000/svg" height="454" style="max-width: 315.341796875px;" viewBox="0  0 180.1953125 454"><style>#mermaid-1606537385608{font-family:"trebuchet ms",verdana,arial;font-size:16px;fill:#333;}#mermaid-1606537385608 .error-icon{fill:#552222;}#mermaid-1606537385608 .error-text{fill:#552222;stroke:#552222;}#mermaid-1606537385608 .edge-thickness-normal{stroke-width:2px;}#mermaid-1606537385608 .edge-thickness-thick{stroke-width:3.5px;}#mermaid-1606537385608 .edge-pattern-solid{stroke-dasharray:0;}#mermaid-1606537385608 .edge-pattern-dashed{stroke-dasharray:3;}#mermaid-1606537385608 .edge-pattern-dotted{stroke-dasharray:2;}#mermaid-1606537385608 .marker{fill:#333333;}#mermaid-1606537385608 .marker.cross{stroke:#333333;}#mermaid-1606537385608 svg{font-family:"trebuchet ms",verdana,arial;font-size:16px;}#mermaid-1606537385608 g.stateGroup text{fill:#9370DB;stroke:none;font-size:10px;}#mermaid-1606537385608 g.stateGroup text{fill:#333;stroke:none;font-size:10px;}#mermaid-1606537385608 g.stateGroup .state-title{font-weight:bolder;fill:black;}#mermaid-1606537385608 g.stateGroup rect{fill:#ECECFF;stroke:#9370DB;}#mermaid-1606537385608 g.stateGroup line{stroke:#333333;stroke-width:1;}#mermaid-1606537385608 .transition{stroke:#333333;stroke-width:1;fill:none;}#mermaid-1606537385608 .stateGroup .composit{fill:white;border-bottom:1px;}#mermaid-1606537385608 .stateGroup .alt-composit{fill:#e0e0e0;border-bottom:1px;}#mermaid-1606537385608 .state-note{stroke:#aaaa33;fill:#fff5ad;}#mermaid-1606537385608 .state-note text{fill:black;stroke:none;font-size:10px;}#mermaid-1606537385608 .stateLabel .box{stroke:none;stroke-width:0;fill:#ECECFF;opacity:0.5;}#mermaid-1606537385608 .edgeLabel .label rect{fill:hsl(80,100%,96.2745098039%);opacity:0.5;}#mermaid-1606537385608 .edgeLabel .label text{fill:rgb(9.5000000001,9.5000000001,9.5000000001);}#mermaid-1606537385608 .label div .edgeLabel{color:rgb(9.5000000001,9.5000000001,9.5000000001);}#mermaid-1606537385608 .stateLabel text{fill:black;font-size:10px;font-weight:bold;}#mermaid-1606537385608 .node circle.state-start{fill:#333333;stroke:black;}#mermaid-1606537385608 .node circle.state-end{fill:hsl(240,60%,86.2745098039%);stroke:white;stroke-width:1.5;}#mermaid-1606537385608 .end-state-inner{fill:white;stroke-width:1.5;}#mermaid-1606537385608 .node rect{fill:#ECECFF;stroke:#9370DB;stroke-width:1px;}#mermaid-1606537385608 #statediagram-barbEnd{fill:#333333;}#mermaid-1606537385608 .statediagram-cluster rect{fill:#ECECFF;stroke:#9370DB;stroke-width:1px;}#mermaid-1606537385608 .cluster-label,#mermaid-1606537385608 .nodeLabel{color:#333;}#mermaid-1606537385608 .statediagram-cluster rect.outer{rx:5px;ry:5px;}#mermaid-1606537385608 .statediagram-state .divider{stroke:#9370DB;}#mermaid-1606537385608 .statediagram-state .title-state{rx:5px;ry:5px;}#mermaid-1606537385608 .statediagram-cluster.statediagram-cluster .inner{fill:white;}#mermaid-1606537385608 .statediagram-cluster.statediagram-cluster-alt .inner{fill:#e0e0e0;}#mermaid-1606537385608 .statediagram-cluster .inner{rx:0;ry:0;}#mermaid-1606537385608 .statediagram-state rect.basic{rx:5px;ry:5px;}#mermaid-1606537385608 .statediagram-state rect.divider{stroke-dasharray:10,10;fill:#efefef;}#mermaid-1606537385608 .note-edge{stroke-dasharray:5;}#mermaid-1606537385608 .statediagram-note rect{fill:#fff5ad;stroke:#aaaa33;stroke-width:1px;rx:0;ry:0;}#mermaid-1606537385608 .statediagram-note rect{fill:#fff5ad;stroke:#aaaa33;stroke-width:1px;rx:0;ry:0;}#mermaid-1606537385608 .statediagram-note text{fill:black;}#mermaid-1606537385608 .statediagram-note .nodeLabel{color:black;}#mermaid-1606537385608 #dependencyStart,#mermaid-1606537385608 #dependencyEnd{fill:#333333;stroke:#333333;stroke-width:1;}#mermaid-1606537385608:root{--mermaid-font-family:"trebuchet ms",verdana,arial;}#mermaid-1606537385608 state{fill:apa;}</style><g></g><defs><marker id="dependencyEnd" refX="19" refY="7" markerWidth="20" markerHeight="28" orient="auto"><path d="M 19,7 L9,13 L14,7 L9,1 Z"></path></marker></defs><g id="start1" class="stateGroup" transform="translate(94.453125,0 )" data-x-shift="94.453125"><circle class="start-state" r="5" cx="13" cy="13"></circle></g><g id="InitiateByOrganizer" class="stateGroup" transform="translate(45.546875,46 )" data-x-shift="45.546875"><rect x="8" y="8" width="107.8125" height="27" rx="5"></rect><text x="16" y="26" font-size="24" class="state-title">InitiateByOrganizer</text></g><g id="Approver1" class="stateGroup" transform="translate(0,109 )" data-x-shift="0"><rect x="8" y="8" width="66.453125" height="27" rx="5"></rect><text x="16" y="26" font-size="24" class="state-title">Approver1</text></g><g id="Approver2" class="stateGroup" transform="translate(38.11328125,172 )" data-x-shift="38.11328125"><rect x="8" y="8" width="66.453125" height="27" rx="5"></rect><text x="16" y="26" font-size="24" class="state-title">Approver2</text></g><g id="ApproverN" class="stateGroup" transform="translate(75.609375,235 )" data-x-shift="75.609375"><rect x="8" y="8" width="67.6875" height="27" rx="5"></rect><text x="16" y="26" font-size="24" class="state-title">ApproverN</text></g><g id="ReceivedByInitiator" class="stateGroup" transform="translate(54.7109375,298 )" data-x-shift="54.7109375"><rect x="8" y="8" width="109.484375" height="27" rx="5"></rect><text x="16" y="26" font-size="24" class="state-title">ReceivedByInitiator</text></g><g id="BatchProcessInit" class="stateGroup" transform="translate(60.265625,361 )" data-x-shift="60.265625"><rect x="8" y="8" width="98.375" height="27" rx="5"></rect><text x="16" y="26" font-size="24" class="state-title">BatchProcessInit</text></g><g id="end1" class="stateGroup" transform="translate(102.453125,424 )" data-x-shift="102.453125"><circle class="end-state-outer" r="7" cx="15" cy="15"></circle><circle class="end-state-inner" r="5" cx="15" cy="15"></circle></g><path d="M107.453125,26L107.453125,27.666666666666668C107.453125,29.333333333333332,107.453125,32.666666666666664,107.453125,36C107.453125,39.333333333333336,107.453125,42.666666666666664,107.453125,44.333333333333336L107.453125,46" id="edge0" class="transition" marker-end="url(#dependencyEnd)"></path><path d="M55.42547123015873,89L51.39231977513227,90.66666666666667C47.35916832010582,92.33333333333333,39.29286541005291,95.66666666666667,35.78881448412699,99C32.28476355820106,102.33333333333333,33.34296461640212,105.66666666666667,33.87206514550265,107.33333333333333L34.40116567460318,109" id="edge1" class="transition" marker-end="url(#dependencyEnd)"></path><path d="M60.41499255952381,109L61.902467757936506,107.33333333333333C63.38994295634921,105.66666666666667,66.3648933531746,102.33333333333333,69.86894427910052,99C73.37299520502646,95.66666666666667,77.40614666005291,92.33333333333333,79.42272238756614,90.66666666666667L81.43929811507937,89" id="edge2" class="transition" marker-end="url(#dependencyEnd)"></path><path d="M41.2265625,152L41.2265625,153.66666666666666C41.2265625,155.33333333333334,41.2265625,158.66666666666666,43.243138227513235,162C45.259713955026456,165.33333333333334,49.29286541005291,168.66666666666666,51.30944113756615,170.33333333333334L53.32601686507937,172" id="edge3" class="transition" marker-end="url(#dependencyEnd)"></path><path d="M105.35367063492063,172L107.37024636243386,170.33333333333334C109.38682208994709,168.66666666666666,113.41997354497353,165.33333333333334,115.43654927248677,158.41666666666666C117.453125,151.5,117.453125,141,117.453125,130.5C117.453125,120,117.453125,109.5,116.92402447089948,102.58333333333333C116.39492394179894,95.66666666666667,115.33672288359787,92.33333333333333,114.80762235449735,90.66666666666667L114.27852182539682,89" id="edge4" class="transition" marker-end="url(#dependencyEnd)"></path><path d="M79.33984375,215L79.33984375,216.66666666666666C79.33984375,218.33333333333334,79.33984375,221.66666666666666,81.35641947751323,225C83.37299520502646,228.33333333333334,87.40614666005291,231.66666666666666,89.42272238756614,233.33333333333334L91.43929811507937,235" id="edge5" class="transition" marker-end="url(#dependencyEnd)"></path><path d="M150.29234871031747,235L152.83802496693121,233.33333333333334C155.383701223545,231.66666666666666,160.47505373677248,228.33333333333334,163.02072999338625,221.41666666666666C165.56640625,214.5,165.56640625,204,165.56640625,193.5C165.56640625,183,165.56640625,172.5,165.56640625,162C165.56640625,151.5,165.56640625,141,165.56640625,130.5C165.56640625,120,165.56640625,109.5,162.4916294642857,102.58333333333333C159.41685267857142,95.66666666666667,153.26729910714286,92.33333333333333,150.19252232142856,90.66666666666667L147.11774553571428,89" id="edge6" class="transition" marker-end="url(#dependencyEnd)"></path><path d="M117.453125,278L117.453125,279.6666666666667C117.453125,281.3333333333333,117.453125,284.6666666666667,117.453125,288C117.453125,291.3333333333333,117.453125,294.6666666666667,117.453125,296.3333333333333L117.453125,298" id="edge7" class="transition" marker-end="url(#dependencyEnd)"></path><path d="M117.453125,341L117.453125,342.6666666666667C117.453125,344.3333333333333,117.453125,347.6666666666667,117.453125,351C117.453125,354.3333333333333,117.453125,357.6666666666667,117.453125,359.3333333333333L117.453125,361" id="edge8" class="transition" marker-end="url(#dependencyEnd)"></path><path d="M117.453125,404L117.453125,405.6666666666667C117.453125,407.3333333333333,117.453125,410.6666666666667,117.453125,414C117.453125,417.3333333333333,117.453125,420.6666666666667,117.453125,422.3333333333333L117.453125,424" id="edge9" class="transition" marker-end="url(#dependencyEnd)"></path></svg>